<?xml version="1.0" encoding="UTF-8" standalone="no"?>
<!-- Created with Inkscape (http://www.inkscape.org/) -->

<svg
   version="1.1"
   id="svg1"
   width="775.82715"
   height="199.82715"
   viewBox="0 0 775.82715 199.82715"
   sodipodi:docname="PFrancisLogo2.svg"
   inkscape:version="1.4.3 (0d15f75, 2025-12-25)"
   xmlns:inkscape="http://www.inkscape.org/namespaces/inkscape"
   xmlns:sodipodi="http://sodipodi.sourceforge.net/DTD/sodipodi-0.dtd"
   xmlns="http://www.w3.org/2000/svg"
   xmlns:svg="http://www.w3.org/2000/svg">
  <defs
     id="defs1" />
  <sodipodi:namedview
     id="namedview1"
     pagecolor="#ffffff"
     bordercolor="#000000"
     borderopacity="0.25"
     inkscape:showpageshadow="2"
     inkscape:pageopacity="0.0"
     inkscape:pagecheckerboard="0"
     inkscape:deskcolor="#d1d1d1"
     inkscape:zoom="0.71813725"
     inkscape:cx="525.66553"
     inkscape:cy="406.60751"
     inkscape:window-width="1440"
     inkscape:window-height="830"
     inkscape:window-x="-7"
     inkscape:window-y="-7"
     inkscape:window-maximized="1"
     inkscape:current-layer="g1">
    <inkscape:page
       x="0"
       y="0"
       inkscape:label="1"
       id="page1"
       width="775.82715"
       height="199.82715"
       margin="0"
       bleed="0" />
  </sodipodi:namedview>
  <g
     id="g1"
     inkscape:groupmode="layer"
     inkscape:label="1"
     transform="translate(-2.2297564,-1.7383126)">
    <g
       id="group-R5"
       transform="translate(-137.85666,-306.34812)">
      <path
         id="path2"
         d="m 1699.91,3193.11 h 148.6 c 66.99,0 112.42,22.4 112.42,90.3 0,63.71 -47.74,84.01 -109.34,84.01 h -151.68 z m 0,-270.24 h -74.69 v 502.66 h 248.7 c 102.41,0 164,-60.21 164,-141.42 0,-70.01 -43.89,-149.11 -164,-149.11 h -174.01 v -212.13"
         style="fill:#231f20;fill-opacity:1;fill-rule:nonzero;stroke:none"
         transform="matrix(0.13333333,0,0,-0.13333333,0,816)" />
      <path
         id="path3"
         d="m 2158.06,2922.87 h -80.08 v 74.21 h 80.08 v -74.21"
         style="fill:#231f20;fill-opacity:1;fill-rule:nonzero;stroke:none"
         transform="matrix(0.13333333,0,0,-0.13333333,0,816)" />
      <path
         id="path4"
         d="m 2687.82,2922.87 h -74.69 v 502.66 h 382.68 v -60.21 H 2687.82 V 3211.3 h 271.03 v -60.21 h -271.03 v -228.22"
         style="fill:#231f20;fill-opacity:1;fill-rule:nonzero;stroke:none"
         transform="matrix(0.13333333,0,0,-0.13333333,0,816)" />
      <path
         id="path5"
         d="m 3215.72,3202.8 h 142.53 c 30.3,0 54.01,3.14 71.1,9.41 17.09,6.26 30.07,16.29 38.96,30.08 8.89,13.77 13.33,28.76 13.33,44.94 0,23.7 -8.6,43.18 -25.81,58.44 -17.2,15.27 -44.38,22.9 -81.51,22.9 h -158.6 z m -66.31,-279.93 v 501.08 h 222.17 c 44.66,0 78.61,-4.51 101.86,-13.5 23.24,-9 41.81,-24.9 55.71,-47.69 13.9,-22.78 20.85,-47.96 20.85,-75.53 0,-35.55 -11.51,-65.51 -34.52,-89.9 -23.02,-24.38 -36.4,-39.87 -84.48,-46.48 17.54,-8.43 55.54,-64.94 72.86,-91.6 l 87.16,-136.38 h -83.4 l -66.31,104.25 c -19.37,30.08 -35.32,53.1 -47.85,69.04 -12.54,15.95 -23.76,27.12 -33.67,33.5 -9.91,6.38 -20,10.82 -30.25,13.33 -7.52,1.59 -19.82,2.39 -36.91,2.39 h -76.91 v -222.51 h -66.31"
         style="fill:#231f20;fill-opacity:1;fill-rule:nonzero;stroke:none"
         transform="matrix(0.13333333,0,0,-0.13333333,0,816)" />
      <path
         id="path6"
         d="m 4010.22,3129.4 -81.61,221.22 h -1.55 l -88.54,-221.22 z m -194.8,-60.21 -57.74,-146.32 h -77 l 207.89,502.66 h 84.69 l 200.2,-502.66 h -81.61 l -54.67,146.32 h -221.76"
         style="fill:#231f20;fill-opacity:1;fill-rule:nonzero;stroke:none"
         transform="matrix(0.13333333,0,0,-0.13333333,0,816)" />
      <path
         id="path7"
         d="m 4685.51,3425.53 h 72.37 v -502.66 h -83.93 l -281.03,406.05 h -1.54 V 2922.87 H 4319 v 502.66 h 88.55 l 276.41,-406.05 h 1.55 v 406.05"
         style="fill:#231f20;fill-opacity:1;fill-rule:nonzero;stroke:none"
         transform="matrix(0.13333333,0,0,-0.13333333,0,816)" />
      <path
         id="path8"
         d="m 5339.99,3274.31 c -20.78,88.21 -101.63,104.31 -154.76,104.31 -100.09,0 -180.93,-67.2 -180.93,-199.52 0,-118.31 46.19,-209.32 183.24,-209.32 48.5,0 132.43,21 157.84,137.92 h 72.38 c -30.8,-189.73 -200.19,-198.13 -241.76,-198.13 -125.51,0 -248.71,74.21 -248.71,267.43 0,154.72 97.02,261.83 257.94,261.83 142.45,0 216.36,-80.51 227.14,-164.52 h -72.38"
         style="fill:#231f20;fill-opacity:1;fill-rule:nonzero;stroke:none"
         transform="matrix(0.13333333,0,0,-0.13333333,0,816)" />
      <path
         id="path9"
         d="m 5671.1,2922.87 h -74.68 v 502.66 h 74.68 v -502.66"
         style="fill:#231f20;fill-opacity:1;fill-rule:nonzero;stroke:none"
         transform="matrix(0.13333333,0,0,-0.13333333,0,816)" />
      <path
         id="path10"
         d="m 6209.31,3278.51 c -3.85,77.71 -74.68,102.21 -137.05,102.21 -46.97,0 -126.27,-11.9 -126.27,-88.21 0,-42.71 33.1,-56.7 65.45,-63.7 l 157.84,-32.91 c 71.6,-15.4 125.49,-54.6 125.49,-134.42 0,-119.01 -121.65,-151.91 -216.35,-151.91 -102.4,0 -142.44,28.01 -167.08,48.31 -46.98,38.5 -56.21,80.51 -56.21,127.41 h 70.06 c 0,-91.01 81.63,-117.61 152.46,-117.61 53.89,0 144.75,12.6 144.75,84.7 0,52.51 -26.95,69.31 -117.8,88.92 l -113.18,23.8 c -36.2,7.7 -117.81,30.8 -117.81,118.31 0,78.41 56.2,155.42 190.18,155.42 193.26,0 212.51,-105.01 215.58,-160.32 h -70.06"
         style="fill:#231f20;fill-opacity:1;fill-rule:nonzero;stroke:none"
         transform="matrix(0.13333333,0,0,-0.13333333,0,816)" />
      <path
         id="path11"
         d="m 3461.35,2791.01 h -75.46 v -27.19 h 69.32 v -22.86 h -69.32 v -33.5 h 78.83 v -22.86 h -107.94 v 129.28 h 104.57 v -22.87"
         style="fill:#231f20;fill-opacity:1;fill-rule:nonzero;stroke:none"
         transform="matrix(0.13333333,0,0,-0.13333333,0,816)" />
      <path
         id="path12"
         d="m 3549.63,2724.39 c 0.2,-7.2 4.16,-20.88 30.11,-20.88 14.06,0 29.71,3.05 29.71,16.73 0,10.09 -10.7,12.79 -25.75,16.03 l -15.25,3.24 c -22.98,4.86 -45.16,9.54 -45.16,37.99 0,14.4 8.52,39.79 54.66,39.79 43.58,0 55.26,-25.92 55.46,-41.76 h -28.52 c -0.79,5.76 -3.17,19.44 -29.11,19.44 -11.29,0 -24.76,-3.78 -24.76,-15.49 0,-10.08 9.11,-12.23 15.05,-13.5 l 34.66,-7.74 c 19.41,-4.32 37.24,-11.52 37.24,-34.75 0,-38.89 -43.58,-42.32 -56.05,-42.32 -51.9,0 -60.81,27.19 -60.81,43.22 h 28.52"
         style="fill:#231f20;fill-opacity:1;fill-rule:nonzero;stroke:none"
         transform="matrix(0.13333333,0,0,-0.13333333,0,816)" />
      <path
         id="path13"
         d="m 3760.51,2684.6 h -29.7 v 106.41 h -42.98 v 22.87 h 115.66 v -22.87 h -42.98 V 2684.6"
         style="fill:#231f20;fill-opacity:1;fill-rule:nonzero;stroke:none"
         transform="matrix(0.13333333,0,0,-0.13333333,0,816)" />
      <path
         id="path14"
         d="m 3872.17,2684.6 h -29.7 v 26.29 h 29.7 v -26.29"
         style="fill:#231f20;fill-opacity:1;fill-rule:nonzero;stroke:none"
         transform="matrix(0.13333333,0,0,-0.13333333,0,816)" />
      <path
         id="path15"
         d="m 4017.91,2767.25 c 0,41.59 33.46,45.18 45.94,45.18 26.93,0 48.32,-14.4 48.32,-40.33 0,-21.96 -15.65,-33.12 -29.3,-41.59 -18.63,-11.89 -28.32,-17.65 -31.5,-23.59 h 61.01 v -22.32 h -96.07 c 0.99,14.94 2.19,30.61 32.69,50.77 25.35,16.75 35.45,23.23 35.45,37.64 0,8.46 -5.93,18.18 -19.41,18.18 -19.42,0 -20,-14.59 -20.2,-23.94 h -26.93"
         style="fill:#231f20;fill-opacity:1;fill-rule:nonzero;stroke:none"
         transform="matrix(0.13333333,0,0,-0.13333333,0,816)" />
      <path
         id="path16"
         d="m 4215.92,2701.34 c 15.84,0 20.19,12.61 20.19,45.56 0,32.94 -4.35,45.37 -20.19,45.37 -15.84,0 -20.22,-12.43 -20.22,-45.37 0,-32.95 4.38,-45.56 20.22,-45.56 z m 0,111.09 c 33.06,0 48.71,-20.7 48.71,-65.53 0,-44.84 -15.65,-65.73 -48.71,-65.73 -33.09,0 -48.73,20.89 -48.73,65.73 0,44.83 15.64,65.53 48.73,65.53"
         style="fill:#231f20;fill-opacity:1;fill-rule:nonzero;stroke:none"
         transform="matrix(0.13333333,0,0,-0.13333333,0,816)" />
      <path
         id="path17"
         d="m 4365.6,2701.34 c 15.84,0 20.2,12.61 20.2,45.56 0,32.94 -4.36,45.37 -20.2,45.37 -15.83,0 -20.21,-12.43 -20.21,-45.37 0,-32.95 4.38,-45.56 20.21,-45.56 z m 0,111.09 c 33.07,0 48.72,-20.7 48.72,-65.53 0,-44.84 -15.65,-65.73 -48.72,-65.73 -33.08,0 -48.73,20.89 -48.73,65.73 0,44.83 15.65,65.53 48.73,65.53"
         style="fill:#231f20;fill-opacity:1;fill-rule:nonzero;stroke:none"
         transform="matrix(0.13333333,0,0,-0.13333333,0,816)" />
      <path
         id="path18"
         d="m 4515.29,2747.08 c -10.51,0 -21.19,-5.95 -21.19,-21.97 0,-13.87 8.71,-23.77 21.97,-23.77 10.12,0 19.42,7.02 19.42,24.31 0,16.21 -11.49,21.43 -20.2,21.43 z m 17.62,32.95 c -0.78,7.2 -5.94,12.24 -16.23,12.24 -18.03,0 -22.19,-18.73 -23.18,-35.29 l 0.41,-0.36 c 3.75,4.68 10.68,10.63 26.32,10.63 29.12,0 42.99,-20.35 42.99,-39.44 0,-27.91 -18.81,-46.64 -45.95,-46.64 -42.58,0 -50.9,32.41 -50.9,64.29 0,24.31 3.57,66.97 52.28,66.97 5.74,0 21.8,-1.97 28.73,-8.28 7.72,-6.84 10.49,-10.62 13.07,-24.12 h -27.54"
         style="fill:#231f20;fill-opacity:1;fill-rule:nonzero;stroke:none"
         transform="matrix(0.13333333,0,0,-0.13333333,0,816)" />
      <path
         id="path19"
         d="M 6840,2340 H 1080 v 1440 h 5760 z"
         style="fill:none;stroke:#231f20;stroke-width:58.7037;stroke-linecap:butt;stroke-linejoin:miter;stroke-miterlimit:10;stroke-dasharray:none;stroke-opacity:1"
         transform="matrix(0.13333333,0,0,-0.13333333,0,816)" />
    </g>
  </g>
</svg>
